<mxfile host="Electron" modified="2023-08-26T07:39:50.154Z" agent="Mozilla/5.0 (X11; Linux x86_64) AppleWebKit/537.36 (KHTML, like Gecko) draw.io/21.6.5 Chrome/114.0.5735.243 Electron/25.3.1 Safari/537.36" etag="rYyFtKdBUm1yUX-2s7iX" version="21.6.5" type="device" pages="2">
  <diagram name="十字链表" id="WRajlINXnAAaDcF1lGLC">
    <mxGraphModel dx="1231" dy="764" grid="1" gridSize="10" guides="1" tooltips="1" connect="1" arrows="1" fold="1" page="1" pageScale="1" pageWidth="827" pageHeight="1169" math="0" shadow="0">
      <root>
        <mxCell id="0" />
        <mxCell id="1" parent="0" />
        <mxCell id="aK7By0x7UXtLP76O93tU-1" value="1" style="rounded=0;whiteSpace=wrap;html=1;" vertex="1" parent="1">
          <mxGeometry x="481" y="200" width="40" height="40" as="geometry" />
        </mxCell>
        <mxCell id="aK7By0x7UXtLP76O93tU-2" value="0" style="rounded=0;whiteSpace=wrap;html=1;" vertex="1" parent="1">
          <mxGeometry x="521" y="200" width="40" height="40" as="geometry" />
        </mxCell>
        <mxCell id="aK7By0x7UXtLP76O93tU-76" style="edgeStyle=orthogonalEdgeStyle;rounded=0;orthogonalLoop=1;jettySize=auto;html=1;exitX=0.5;exitY=1;exitDx=0;exitDy=0;entryX=0;entryY=0;entryDx=0;entryDy=0;fillColor=#d5e8d4;strokeColor=#82b366;" edge="1" parent="1" source="aK7By0x7UXtLP76O93tU-3" target="aK7By0x7UXtLP76O93tU-38">
          <mxGeometry relative="1" as="geometry" />
        </mxCell>
        <mxCell id="aK7By0x7UXtLP76O93tU-3" value="" style="rounded=0;whiteSpace=wrap;html=1;fillColor=#d5e8d4;strokeColor=#82b366;" vertex="1" parent="1">
          <mxGeometry x="561" y="200" width="40" height="40" as="geometry" />
        </mxCell>
        <mxCell id="aK7By0x7UXtLP76O93tU-57" style="edgeStyle=orthogonalEdgeStyle;rounded=0;orthogonalLoop=1;jettySize=auto;html=1;exitX=1;exitY=0.5;exitDx=0;exitDy=0;entryX=0;entryY=0.5;entryDx=0;entryDy=0;fillColor=#dae8fc;strokeColor=#6c8ebf;" edge="1" parent="1" source="aK7By0x7UXtLP76O93tU-4" target="aK7By0x7UXtLP76O93tU-9">
          <mxGeometry relative="1" as="geometry" />
        </mxCell>
        <mxCell id="aK7By0x7UXtLP76O93tU-4" value="" style="rounded=0;whiteSpace=wrap;html=1;fillColor=#dae8fc;strokeColor=#6c8ebf;" vertex="1" parent="1">
          <mxGeometry x="601" y="200" width="40" height="40" as="geometry" />
        </mxCell>
        <mxCell id="aK7By0x7UXtLP76O93tU-5" value="2" style="rounded=0;whiteSpace=wrap;html=1;" vertex="1" parent="1">
          <mxGeometry x="681" y="280" width="40" height="40" as="geometry" />
        </mxCell>
        <mxCell id="aK7By0x7UXtLP76O93tU-6" value="1" style="rounded=0;whiteSpace=wrap;html=1;" vertex="1" parent="1">
          <mxGeometry x="721" y="280" width="40" height="40" as="geometry" />
        </mxCell>
        <mxCell id="aK7By0x7UXtLP76O93tU-7" value="null" style="rounded=0;whiteSpace=wrap;html=1;" vertex="1" parent="1">
          <mxGeometry x="761" y="280" width="40" height="40" as="geometry" />
        </mxCell>
        <mxCell id="aK7By0x7UXtLP76O93tU-8" value="null" style="rounded=0;whiteSpace=wrap;html=1;" vertex="1" parent="1">
          <mxGeometry x="801" y="280" width="40" height="40" as="geometry" />
        </mxCell>
        <mxCell id="aK7By0x7UXtLP76O93tU-9" value="1" style="rounded=0;whiteSpace=wrap;html=1;" vertex="1" parent="1">
          <mxGeometry x="881" y="200" width="40" height="40" as="geometry" />
        </mxCell>
        <mxCell id="aK7By0x7UXtLP76O93tU-10" value="2" style="rounded=0;whiteSpace=wrap;html=1;" vertex="1" parent="1">
          <mxGeometry x="921" y="200" width="40" height="40" as="geometry" />
        </mxCell>
        <mxCell id="aK7By0x7UXtLP76O93tU-11" value="null" style="rounded=0;whiteSpace=wrap;html=1;" vertex="1" parent="1">
          <mxGeometry x="961" y="200" width="40" height="40" as="geometry" />
        </mxCell>
        <mxCell id="aK7By0x7UXtLP76O93tU-12" value="null" style="rounded=0;whiteSpace=wrap;html=1;" vertex="1" parent="1">
          <mxGeometry x="1001" y="200" width="40" height="40" as="geometry" />
        </mxCell>
        <mxCell id="aK7By0x7UXtLP76O93tU-13" value="0" style="rounded=0;whiteSpace=wrap;html=1;" vertex="1" parent="1">
          <mxGeometry x="1081" y="120" width="40" height="40" as="geometry" />
        </mxCell>
        <mxCell id="aK7By0x7UXtLP76O93tU-14" value="3" style="rounded=0;whiteSpace=wrap;html=1;" vertex="1" parent="1">
          <mxGeometry x="1121" y="120" width="40" height="40" as="geometry" />
        </mxCell>
        <mxCell id="aK7By0x7UXtLP76O93tU-15" value="null" style="rounded=0;whiteSpace=wrap;html=1;" vertex="1" parent="1">
          <mxGeometry x="1161" y="120" width="40" height="40" as="geometry" />
        </mxCell>
        <mxCell id="aK7By0x7UXtLP76O93tU-16" value="null" style="rounded=0;whiteSpace=wrap;html=1;" vertex="1" parent="1">
          <mxGeometry x="1201" y="120" width="40" height="40" as="geometry" />
        </mxCell>
        <mxCell id="aK7By0x7UXtLP76O93tU-24" style="rounded=0;orthogonalLoop=1;jettySize=auto;html=1;exitX=1;exitY=1;exitDx=0;exitDy=0;entryX=0;entryY=0;entryDx=0;entryDy=0;" edge="1" parent="1" source="aK7By0x7UXtLP76O93tU-18" target="aK7By0x7UXtLP76O93tU-21">
          <mxGeometry relative="1" as="geometry" />
        </mxCell>
        <mxCell id="aK7By0x7UXtLP76O93tU-18" value="v0" style="ellipse;whiteSpace=wrap;html=1;aspect=fixed;" vertex="1" parent="1">
          <mxGeometry x="121" y="120" width="80" height="80" as="geometry" />
        </mxCell>
        <mxCell id="aK7By0x7UXtLP76O93tU-22" style="rounded=0;orthogonalLoop=1;jettySize=auto;html=1;exitX=1;exitY=0;exitDx=0;exitDy=0;entryX=0;entryY=1;entryDx=0;entryDy=0;" edge="1" parent="1" source="aK7By0x7UXtLP76O93tU-19" target="aK7By0x7UXtLP76O93tU-18">
          <mxGeometry relative="1" as="geometry" />
        </mxCell>
        <mxCell id="aK7By0x7UXtLP76O93tU-26" style="rounded=0;orthogonalLoop=1;jettySize=auto;html=1;exitX=0.5;exitY=1;exitDx=0;exitDy=0;entryX=0;entryY=0.5;entryDx=0;entryDy=0;" edge="1" parent="1" source="aK7By0x7UXtLP76O93tU-19" target="aK7By0x7UXtLP76O93tU-20">
          <mxGeometry relative="1" as="geometry" />
        </mxCell>
        <mxCell id="aK7By0x7UXtLP76O93tU-19" value="v1" style="ellipse;whiteSpace=wrap;html=1;aspect=fixed;" vertex="1" parent="1">
          <mxGeometry x="41" y="200" width="80" height="80" as="geometry" />
        </mxCell>
        <mxCell id="aK7By0x7UXtLP76O93tU-23" style="edgeStyle=orthogonalEdgeStyle;rounded=0;orthogonalLoop=1;jettySize=auto;html=1;exitX=0.5;exitY=0;exitDx=0;exitDy=0;entryX=0.5;entryY=1;entryDx=0;entryDy=0;" edge="1" parent="1" source="aK7By0x7UXtLP76O93tU-20" target="aK7By0x7UXtLP76O93tU-18">
          <mxGeometry relative="1" as="geometry" />
        </mxCell>
        <mxCell id="aK7By0x7UXtLP76O93tU-25" style="rounded=0;orthogonalLoop=1;jettySize=auto;html=1;exitX=0;exitY=0;exitDx=0;exitDy=0;entryX=1;entryY=1;entryDx=0;entryDy=0;" edge="1" parent="1" source="aK7By0x7UXtLP76O93tU-20" target="aK7By0x7UXtLP76O93tU-19">
          <mxGeometry relative="1" as="geometry" />
        </mxCell>
        <mxCell id="aK7By0x7UXtLP76O93tU-20" value="v2" style="ellipse;whiteSpace=wrap;html=1;aspect=fixed;" vertex="1" parent="1">
          <mxGeometry x="121" y="280" width="80" height="80" as="geometry" />
        </mxCell>
        <mxCell id="aK7By0x7UXtLP76O93tU-21" value="v3" style="ellipse;whiteSpace=wrap;html=1;aspect=fixed;" vertex="1" parent="1">
          <mxGeometry x="201" y="200" width="80" height="80" as="geometry" />
        </mxCell>
        <mxCell id="aK7By0x7UXtLP76O93tU-36" value="2" style="rounded=0;whiteSpace=wrap;html=1;" vertex="1" parent="1">
          <mxGeometry x="481" y="280" width="40" height="40" as="geometry" />
        </mxCell>
        <mxCell id="aK7By0x7UXtLP76O93tU-37" value="0" style="rounded=0;whiteSpace=wrap;html=1;" vertex="1" parent="1">
          <mxGeometry x="521" y="280" width="40" height="40" as="geometry" />
        </mxCell>
        <mxCell id="aK7By0x7UXtLP76O93tU-38" value="null" style="rounded=0;whiteSpace=wrap;html=1;" vertex="1" parent="1">
          <mxGeometry x="561" y="280" width="40" height="40" as="geometry" />
        </mxCell>
        <mxCell id="aK7By0x7UXtLP76O93tU-59" style="edgeStyle=orthogonalEdgeStyle;rounded=0;orthogonalLoop=1;jettySize=auto;html=1;exitX=1;exitY=0.5;exitDx=0;exitDy=0;fillColor=#dae8fc;strokeColor=#6c8ebf;" edge="1" parent="1" source="aK7By0x7UXtLP76O93tU-39" target="aK7By0x7UXtLP76O93tU-5">
          <mxGeometry relative="1" as="geometry" />
        </mxCell>
        <mxCell id="aK7By0x7UXtLP76O93tU-39" value="" style="rounded=0;whiteSpace=wrap;html=1;fillColor=#dae8fc;strokeColor=#6c8ebf;" vertex="1" parent="1">
          <mxGeometry x="601" y="280" width="40" height="40" as="geometry" />
        </mxCell>
        <mxCell id="aK7By0x7UXtLP76O93tU-40" value="v0" style="rounded=0;whiteSpace=wrap;html=1;" vertex="1" parent="1">
          <mxGeometry x="321" y="120" width="40" height="40" as="geometry" />
        </mxCell>
        <mxCell id="aK7By0x7UXtLP76O93tU-41" value="" style="rounded=0;whiteSpace=wrap;html=1;fillColor=#d5e8d4;strokeColor=#82b366;" vertex="1" parent="1">
          <mxGeometry x="361" y="120" width="40" height="40" as="geometry" />
        </mxCell>
        <mxCell id="aK7By0x7UXtLP76O93tU-55" style="edgeStyle=orthogonalEdgeStyle;rounded=0;orthogonalLoop=1;jettySize=auto;html=1;entryX=0;entryY=0.5;entryDx=0;entryDy=0;fillColor=#dae8fc;strokeColor=#6c8ebf;" edge="1" parent="1" source="aK7By0x7UXtLP76O93tU-42" target="aK7By0x7UXtLP76O93tU-13">
          <mxGeometry relative="1" as="geometry" />
        </mxCell>
        <mxCell id="aK7By0x7UXtLP76O93tU-80" style="rounded=0;orthogonalLoop=1;jettySize=auto;html=1;exitX=1;exitY=0;exitDx=0;exitDy=0;entryX=0;entryY=1;entryDx=0;entryDy=0;shape=link;width=-3.333333333333333;fillColor=#fff2cc;strokeColor=#d6b656;" edge="1" parent="1" source="aK7By0x7UXtLP76O93tU-42" target="aK7By0x7UXtLP76O93tU-62">
          <mxGeometry relative="1" as="geometry" />
        </mxCell>
        <mxCell id="aK7By0x7UXtLP76O93tU-42" value="" style="rounded=0;whiteSpace=wrap;html=1;fillColor=#dae8fc;strokeColor=#6c8ebf;" vertex="1" parent="1">
          <mxGeometry x="401" y="120" width="40" height="40" as="geometry" />
        </mxCell>
        <mxCell id="aK7By0x7UXtLP76O93tU-46" value="v1" style="rounded=0;whiteSpace=wrap;html=1;" vertex="1" parent="1">
          <mxGeometry x="321" y="200" width="40" height="40" as="geometry" />
        </mxCell>
        <mxCell id="aK7By0x7UXtLP76O93tU-47" value="" style="rounded=0;whiteSpace=wrap;html=1;fillColor=#d5e8d4;strokeColor=#82b366;" vertex="1" parent="1">
          <mxGeometry x="361" y="200" width="40" height="40" as="geometry" />
        </mxCell>
        <mxCell id="aK7By0x7UXtLP76O93tU-56" style="edgeStyle=orthogonalEdgeStyle;rounded=0;orthogonalLoop=1;jettySize=auto;html=1;exitX=1;exitY=0.5;exitDx=0;exitDy=0;entryX=0;entryY=0.5;entryDx=0;entryDy=0;fillColor=#dae8fc;strokeColor=#6c8ebf;" edge="1" parent="1" source="aK7By0x7UXtLP76O93tU-48" target="aK7By0x7UXtLP76O93tU-1">
          <mxGeometry relative="1" as="geometry" />
        </mxCell>
        <mxCell id="aK7By0x7UXtLP76O93tU-48" value="" style="rounded=0;whiteSpace=wrap;html=1;fillColor=#dae8fc;strokeColor=#6c8ebf;" vertex="1" parent="1">
          <mxGeometry x="401" y="200" width="40" height="40" as="geometry" />
        </mxCell>
        <mxCell id="aK7By0x7UXtLP76O93tU-49" value="v2" style="rounded=0;whiteSpace=wrap;html=1;" vertex="1" parent="1">
          <mxGeometry x="321" y="280" width="40" height="40" as="geometry" />
        </mxCell>
        <mxCell id="aK7By0x7UXtLP76O93tU-50" value="" style="rounded=0;whiteSpace=wrap;html=1;fillColor=#d5e8d4;strokeColor=#82b366;" vertex="1" parent="1">
          <mxGeometry x="361" y="280" width="40" height="40" as="geometry" />
        </mxCell>
        <mxCell id="aK7By0x7UXtLP76O93tU-58" style="edgeStyle=orthogonalEdgeStyle;rounded=0;orthogonalLoop=1;jettySize=auto;html=1;exitX=1;exitY=0.5;exitDx=0;exitDy=0;entryX=0;entryY=0.5;entryDx=0;entryDy=0;fillColor=#dae8fc;strokeColor=#6c8ebf;" edge="1" parent="1" source="aK7By0x7UXtLP76O93tU-51" target="aK7By0x7UXtLP76O93tU-36">
          <mxGeometry relative="1" as="geometry" />
        </mxCell>
        <mxCell id="aK7By0x7UXtLP76O93tU-51" value="" style="rounded=0;whiteSpace=wrap;html=1;fillColor=#dae8fc;strokeColor=#6c8ebf;" vertex="1" parent="1">
          <mxGeometry x="401" y="280" width="40" height="40" as="geometry" />
        </mxCell>
        <mxCell id="aK7By0x7UXtLP76O93tU-52" value="v3" style="rounded=0;whiteSpace=wrap;html=1;" vertex="1" parent="1">
          <mxGeometry x="321" y="360" width="40" height="40" as="geometry" />
        </mxCell>
        <mxCell id="aK7By0x7UXtLP76O93tU-53" value="" style="rounded=0;whiteSpace=wrap;html=1;fillColor=#d5e8d4;strokeColor=#82b366;" vertex="1" parent="1">
          <mxGeometry x="361" y="360" width="40" height="40" as="geometry" />
        </mxCell>
        <mxCell id="aK7By0x7UXtLP76O93tU-54" value="null" style="rounded=0;whiteSpace=wrap;html=1;" vertex="1" parent="1">
          <mxGeometry x="401" y="360" width="40" height="40" as="geometry" />
        </mxCell>
        <mxCell id="aK7By0x7UXtLP76O93tU-60" value="data&amp;nbsp; &amp;nbsp; firstin&amp;nbsp; &amp;nbsp;firstout" style="text;html=1;strokeColor=none;fillColor=none;align=center;verticalAlign=middle;whiteSpace=wrap;rounded=0;" vertex="1" parent="1">
          <mxGeometry x="321" y="90" width="120" height="30" as="geometry" />
        </mxCell>
        <mxCell id="aK7By0x7UXtLP76O93tU-62" value="v0" style="rounded=0;whiteSpace=wrap;html=1;" vertex="1" parent="1">
          <mxGeometry x="501" y="40" width="40" height="40" as="geometry" />
        </mxCell>
        <mxCell id="aK7By0x7UXtLP76O93tU-75" style="edgeStyle=orthogonalEdgeStyle;rounded=0;orthogonalLoop=1;jettySize=auto;html=1;exitX=0.5;exitY=1;exitDx=0;exitDy=0;entryX=0;entryY=0;entryDx=0;entryDy=0;fillColor=#d5e8d4;strokeColor=#82b366;" edge="1" parent="1" source="aK7By0x7UXtLP76O93tU-63" target="aK7By0x7UXtLP76O93tU-3">
          <mxGeometry relative="1" as="geometry" />
        </mxCell>
        <mxCell id="aK7By0x7UXtLP76O93tU-63" value="" style="rounded=0;whiteSpace=wrap;html=1;fillColor=#d5e8d4;strokeColor=#82b366;" vertex="1" parent="1">
          <mxGeometry x="541" y="40" width="40" height="40" as="geometry" />
        </mxCell>
        <mxCell id="aK7By0x7UXtLP76O93tU-64" value="" style="rounded=0;whiteSpace=wrap;html=1;fillColor=#dae8fc;strokeColor=#6c8ebf;" vertex="1" parent="1">
          <mxGeometry x="581" y="40" width="40" height="40" as="geometry" />
        </mxCell>
        <mxCell id="aK7By0x7UXtLP76O93tU-65" value="v1" style="rounded=0;whiteSpace=wrap;html=1;" vertex="1" parent="1">
          <mxGeometry x="701" y="40" width="40" height="40" as="geometry" />
        </mxCell>
        <mxCell id="aK7By0x7UXtLP76O93tU-77" style="edgeStyle=orthogonalEdgeStyle;rounded=0;orthogonalLoop=1;jettySize=auto;html=1;exitX=0.5;exitY=1;exitDx=0;exitDy=0;entryX=0;entryY=0;entryDx=0;entryDy=0;fillColor=#d5e8d4;strokeColor=#82b366;" edge="1" parent="1" source="aK7By0x7UXtLP76O93tU-66" target="aK7By0x7UXtLP76O93tU-7">
          <mxGeometry relative="1" as="geometry" />
        </mxCell>
        <mxCell id="aK7By0x7UXtLP76O93tU-66" value="" style="rounded=0;whiteSpace=wrap;html=1;fillColor=#d5e8d4;strokeColor=#82b366;" vertex="1" parent="1">
          <mxGeometry x="741" y="40" width="40" height="40" as="geometry" />
        </mxCell>
        <mxCell id="aK7By0x7UXtLP76O93tU-67" value="" style="rounded=0;whiteSpace=wrap;html=1;fillColor=#dae8fc;strokeColor=#6c8ebf;" vertex="1" parent="1">
          <mxGeometry x="781" y="40" width="40" height="40" as="geometry" />
        </mxCell>
        <mxCell id="aK7By0x7UXtLP76O93tU-68" value="v2" style="rounded=0;whiteSpace=wrap;html=1;" vertex="1" parent="1">
          <mxGeometry x="901" y="40" width="40" height="40" as="geometry" />
        </mxCell>
        <mxCell id="aK7By0x7UXtLP76O93tU-78" style="edgeStyle=orthogonalEdgeStyle;rounded=0;orthogonalLoop=1;jettySize=auto;html=1;exitX=0.5;exitY=1;exitDx=0;exitDy=0;entryX=1;entryY=0;entryDx=0;entryDy=0;fillColor=#d5e8d4;strokeColor=#82b366;" edge="1" parent="1" source="aK7By0x7UXtLP76O93tU-69" target="aK7By0x7UXtLP76O93tU-10">
          <mxGeometry relative="1" as="geometry" />
        </mxCell>
        <mxCell id="aK7By0x7UXtLP76O93tU-69" value="" style="rounded=0;whiteSpace=wrap;html=1;fillColor=#d5e8d4;strokeColor=#82b366;" vertex="1" parent="1">
          <mxGeometry x="941" y="40" width="40" height="40" as="geometry" />
        </mxCell>
        <mxCell id="aK7By0x7UXtLP76O93tU-70" value="" style="rounded=0;whiteSpace=wrap;html=1;fillColor=#dae8fc;strokeColor=#6c8ebf;" vertex="1" parent="1">
          <mxGeometry x="981" y="40" width="40" height="40" as="geometry" />
        </mxCell>
        <mxCell id="aK7By0x7UXtLP76O93tU-72" value="v3" style="rounded=0;whiteSpace=wrap;html=1;" vertex="1" parent="1">
          <mxGeometry x="1101" y="40" width="40" height="40" as="geometry" />
        </mxCell>
        <mxCell id="aK7By0x7UXtLP76O93tU-79" style="edgeStyle=orthogonalEdgeStyle;rounded=0;orthogonalLoop=1;jettySize=auto;html=1;exitX=0.5;exitY=1;exitDx=0;exitDy=0;entryX=0;entryY=0;entryDx=0;entryDy=0;fillColor=#d5e8d4;strokeColor=#82b366;" edge="1" parent="1" source="aK7By0x7UXtLP76O93tU-73" target="aK7By0x7UXtLP76O93tU-15">
          <mxGeometry relative="1" as="geometry" />
        </mxCell>
        <mxCell id="aK7By0x7UXtLP76O93tU-73" value="" style="rounded=0;whiteSpace=wrap;html=1;fillColor=#d5e8d4;strokeColor=#82b366;" vertex="1" parent="1">
          <mxGeometry x="1141" y="40" width="40" height="40" as="geometry" />
        </mxCell>
        <mxCell id="aK7By0x7UXtLP76O93tU-74" value="" style="rounded=0;whiteSpace=wrap;html=1;fillColor=#dae8fc;strokeColor=#6c8ebf;" vertex="1" parent="1">
          <mxGeometry x="1181" y="40" width="40" height="40" as="geometry" />
        </mxCell>
        <mxCell id="aK7By0x7UXtLP76O93tU-81" value="tailvex&amp;nbsp; headlink&amp;nbsp; headvex&amp;nbsp; taillink" style="text;html=1;align=center;verticalAlign=middle;resizable=0;points=[];autosize=1;strokeColor=none;fillColor=none;" vertex="1" parent="1">
          <mxGeometry x="1060" y="160" width="200" height="30" as="geometry" />
        </mxCell>
      </root>
    </mxGraphModel>
  </diagram>
  <diagram id="7DFs7tJJolNof0HqLHLs" name="邻接多重表">
    <mxGraphModel dx="1231" dy="764" grid="1" gridSize="10" guides="1" tooltips="1" connect="1" arrows="1" fold="1" page="1" pageScale="1" pageWidth="827" pageHeight="1169" math="0" shadow="0">
      <root>
        <mxCell id="0" />
        <mxCell id="1" parent="0" />
        <mxCell id="B0pa5PrSwRnX7rEMGMQL-7" value="0" style="rounded=0;whiteSpace=wrap;html=1;" vertex="1" parent="1">
          <mxGeometry x="681" y="200" width="40" height="40" as="geometry" />
        </mxCell>
        <mxCell id="B0pa5PrSwRnX7rEMGMQL-8" value="n" style="rounded=0;whiteSpace=wrap;html=1;fillColor=#d5e8d4;strokeColor=#82b366;" vertex="1" parent="1">
          <mxGeometry x="721" y="200" width="40" height="40" as="geometry" />
        </mxCell>
        <mxCell id="B0pa5PrSwRnX7rEMGMQL-9" value="2" style="rounded=0;whiteSpace=wrap;html=1;" vertex="1" parent="1">
          <mxGeometry x="761" y="200" width="40" height="40" as="geometry" />
        </mxCell>
        <mxCell id="19JXx4Fb2y1odMeE2x4L-42" style="edgeStyle=orthogonalEdgeStyle;rounded=0;orthogonalLoop=1;jettySize=auto;html=1;exitX=1;exitY=0.5;exitDx=0;exitDy=0;entryX=1;entryY=0.5;entryDx=0;entryDy=0;" edge="1" parent="1" source="B0pa5PrSwRnX7rEMGMQL-10" target="B0pa5PrSwRnX7rEMGMQL-72">
          <mxGeometry relative="1" as="geometry" />
        </mxCell>
        <mxCell id="B0pa5PrSwRnX7rEMGMQL-10" value="" style="rounded=0;whiteSpace=wrap;html=1;fillColor=#dae8fc;strokeColor=#6c8ebf;" vertex="1" parent="1">
          <mxGeometry x="801" y="200" width="40" height="40" as="geometry" />
        </mxCell>
        <mxCell id="B0pa5PrSwRnX7rEMGMQL-11" value="2" style="rounded=0;whiteSpace=wrap;html=1;" vertex="1" parent="1">
          <mxGeometry x="1081" y="370" width="40" height="40" as="geometry" />
        </mxCell>
        <mxCell id="B0pa5PrSwRnX7rEMGMQL-12" value="" style="rounded=0;whiteSpace=wrap;html=1;fillColor=#d5e8d4;strokeColor=#82b366;" vertex="1" parent="1">
          <mxGeometry x="1121" y="370" width="40" height="40" as="geometry" />
        </mxCell>
        <mxCell id="B0pa5PrSwRnX7rEMGMQL-13" value="1" style="rounded=0;whiteSpace=wrap;html=1;" vertex="1" parent="1">
          <mxGeometry x="1161" y="370" width="40" height="40" as="geometry" />
        </mxCell>
        <mxCell id="B0pa5PrSwRnX7rEMGMQL-14" value="" style="rounded=0;whiteSpace=wrap;html=1;fillColor=#dae8fc;strokeColor=#6c8ebf;" vertex="1" parent="1">
          <mxGeometry x="1201" y="370" width="40" height="40" as="geometry" />
        </mxCell>
        <mxCell id="B0pa5PrSwRnX7rEMGMQL-15" value="2" style="rounded=0;whiteSpace=wrap;html=1;" vertex="1" parent="1">
          <mxGeometry x="1081" y="280" width="40" height="40" as="geometry" />
        </mxCell>
        <mxCell id="B0pa5PrSwRnX7rEMGMQL-16" value="" style="rounded=0;whiteSpace=wrap;html=1;fillColor=#d5e8d4;strokeColor=#82b366;" vertex="1" parent="1">
          <mxGeometry x="1121" y="280" width="40" height="40" as="geometry" />
        </mxCell>
        <mxCell id="B0pa5PrSwRnX7rEMGMQL-17" value="3" style="rounded=0;whiteSpace=wrap;html=1;" vertex="1" parent="1">
          <mxGeometry x="1161" y="280" width="40" height="40" as="geometry" />
        </mxCell>
        <mxCell id="B0pa5PrSwRnX7rEMGMQL-18" value="" style="rounded=0;whiteSpace=wrap;html=1;fillColor=#dae8fc;strokeColor=#6c8ebf;" vertex="1" parent="1">
          <mxGeometry x="1201" y="280" width="40" height="40" as="geometry" />
        </mxCell>
        <mxCell id="B0pa5PrSwRnX7rEMGMQL-19" style="rounded=0;orthogonalLoop=1;jettySize=auto;html=1;exitX=1;exitY=1;exitDx=0;exitDy=0;entryX=0;entryY=0;entryDx=0;entryDy=0;shape=link;" edge="1" parent="1" source="B0pa5PrSwRnX7rEMGMQL-20" target="B0pa5PrSwRnX7rEMGMQL-27">
          <mxGeometry relative="1" as="geometry" />
        </mxCell>
        <mxCell id="B0pa5PrSwRnX7rEMGMQL-20" value="v0" style="ellipse;whiteSpace=wrap;html=1;aspect=fixed;" vertex="1" parent="1">
          <mxGeometry x="121" y="120" width="80" height="80" as="geometry" />
        </mxCell>
        <mxCell id="B0pa5PrSwRnX7rEMGMQL-21" style="rounded=0;orthogonalLoop=1;jettySize=auto;html=1;exitX=1;exitY=0;exitDx=0;exitDy=0;entryX=0;entryY=1;entryDx=0;entryDy=0;shape=link;" edge="1" parent="1" source="B0pa5PrSwRnX7rEMGMQL-23" target="B0pa5PrSwRnX7rEMGMQL-20">
          <mxGeometry relative="1" as="geometry" />
        </mxCell>
        <mxCell id="B0pa5PrSwRnX7rEMGMQL-23" value="v1" style="ellipse;whiteSpace=wrap;html=1;aspect=fixed;" vertex="1" parent="1">
          <mxGeometry x="41" y="200" width="80" height="80" as="geometry" />
        </mxCell>
        <mxCell id="B0pa5PrSwRnX7rEMGMQL-24" style="edgeStyle=orthogonalEdgeStyle;rounded=0;orthogonalLoop=1;jettySize=auto;html=1;exitX=0.5;exitY=0;exitDx=0;exitDy=0;entryX=0.5;entryY=1;entryDx=0;entryDy=0;shape=link;" edge="1" parent="1" source="B0pa5PrSwRnX7rEMGMQL-26" target="B0pa5PrSwRnX7rEMGMQL-20">
          <mxGeometry relative="1" as="geometry" />
        </mxCell>
        <mxCell id="B0pa5PrSwRnX7rEMGMQL-25" style="rounded=0;orthogonalLoop=1;jettySize=auto;html=1;exitX=0;exitY=0;exitDx=0;exitDy=0;entryX=1;entryY=1;entryDx=0;entryDy=0;shape=link;" edge="1" parent="1" source="B0pa5PrSwRnX7rEMGMQL-26" target="B0pa5PrSwRnX7rEMGMQL-23">
          <mxGeometry relative="1" as="geometry" />
        </mxCell>
        <mxCell id="B0pa5PrSwRnX7rEMGMQL-67" style="rounded=0;orthogonalLoop=1;jettySize=auto;html=1;exitX=1;exitY=0;exitDx=0;exitDy=0;entryX=0;entryY=1;entryDx=0;entryDy=0;shape=link;" edge="1" parent="1" source="B0pa5PrSwRnX7rEMGMQL-26" target="B0pa5PrSwRnX7rEMGMQL-27">
          <mxGeometry relative="1" as="geometry" />
        </mxCell>
        <mxCell id="B0pa5PrSwRnX7rEMGMQL-26" value="v2" style="ellipse;whiteSpace=wrap;html=1;aspect=fixed;" vertex="1" parent="1">
          <mxGeometry x="121" y="280" width="80" height="80" as="geometry" />
        </mxCell>
        <mxCell id="B0pa5PrSwRnX7rEMGMQL-27" value="v3" style="ellipse;whiteSpace=wrap;html=1;aspect=fixed;" vertex="1" parent="1">
          <mxGeometry x="201" y="200" width="80" height="80" as="geometry" />
        </mxCell>
        <mxCell id="B0pa5PrSwRnX7rEMGMQL-33" value="v0" style="rounded=0;whiteSpace=wrap;html=1;" vertex="1" parent="1">
          <mxGeometry x="361" y="120" width="40" height="40" as="geometry" />
        </mxCell>
        <mxCell id="19JXx4Fb2y1odMeE2x4L-10" style="edgeStyle=orthogonalEdgeStyle;rounded=0;orthogonalLoop=1;jettySize=auto;html=1;exitX=1;exitY=0.5;exitDx=0;exitDy=0;entryX=0;entryY=0.5;entryDx=0;entryDy=0;" edge="1" parent="1" source="B0pa5PrSwRnX7rEMGMQL-37" target="B0pa5PrSwRnX7rEMGMQL-7">
          <mxGeometry relative="1" as="geometry">
            <Array as="points">
              <mxPoint x="590" y="140" />
              <mxPoint x="590" y="220" />
            </Array>
          </mxGeometry>
        </mxCell>
        <mxCell id="B0pa5PrSwRnX7rEMGMQL-37" value="" style="rounded=0;whiteSpace=wrap;html=1;fillColor=#dae8fc;strokeColor=#6c8ebf;" vertex="1" parent="1">
          <mxGeometry x="401" y="120" width="40" height="40" as="geometry" />
        </mxCell>
        <mxCell id="B0pa5PrSwRnX7rEMGMQL-42" value="v2" style="rounded=0;whiteSpace=wrap;html=1;" vertex="1" parent="1">
          <mxGeometry x="361" y="280" width="40" height="40" as="geometry" />
        </mxCell>
        <mxCell id="19JXx4Fb2y1odMeE2x4L-43" style="edgeStyle=orthogonalEdgeStyle;rounded=0;orthogonalLoop=1;jettySize=auto;html=1;exitX=1;exitY=0.5;exitDx=0;exitDy=0;entryX=0;entryY=0.75;entryDx=0;entryDy=0;" edge="1" parent="1" source="B0pa5PrSwRnX7rEMGMQL-45" target="B0pa5PrSwRnX7rEMGMQL-7">
          <mxGeometry relative="1" as="geometry" />
        </mxCell>
        <mxCell id="B0pa5PrSwRnX7rEMGMQL-45" value="" style="rounded=0;whiteSpace=wrap;html=1;fillColor=#dae8fc;strokeColor=#6c8ebf;" vertex="1" parent="1">
          <mxGeometry x="401" y="280" width="40" height="40" as="geometry" />
        </mxCell>
        <mxCell id="B0pa5PrSwRnX7rEMGMQL-49" value="data&amp;nbsp; &amp;nbsp; firstedge" style="text;html=1;strokeColor=none;fillColor=none;align=center;verticalAlign=middle;whiteSpace=wrap;rounded=0;" vertex="1" parent="1">
          <mxGeometry x="321" y="90" width="120" height="30" as="geometry" />
        </mxCell>
        <mxCell id="B0pa5PrSwRnX7rEMGMQL-54" value="v1" style="rounded=0;whiteSpace=wrap;html=1;" vertex="1" parent="1">
          <mxGeometry x="361" y="200" width="40" height="40" as="geometry" />
        </mxCell>
        <mxCell id="19JXx4Fb2y1odMeE2x4L-41" style="edgeStyle=orthogonalEdgeStyle;rounded=0;orthogonalLoop=1;jettySize=auto;html=1;exitX=1;exitY=0.5;exitDx=0;exitDy=0;entryX=0;entryY=0.75;entryDx=0;entryDy=0;" edge="1" parent="1" source="B0pa5PrSwRnX7rEMGMQL-57" target="B0pa5PrSwRnX7rEMGMQL-69">
          <mxGeometry relative="1" as="geometry" />
        </mxCell>
        <mxCell id="B0pa5PrSwRnX7rEMGMQL-57" value="" style="rounded=0;whiteSpace=wrap;html=1;fillColor=#dae8fc;strokeColor=#6c8ebf;" vertex="1" parent="1">
          <mxGeometry x="401" y="200" width="39" height="40" as="geometry" />
        </mxCell>
        <mxCell id="B0pa5PrSwRnX7rEMGMQL-62" value="v3" style="rounded=0;whiteSpace=wrap;html=1;" vertex="1" parent="1">
          <mxGeometry x="1101" y="40" width="40" height="40" as="geometry" />
        </mxCell>
        <mxCell id="B0pa5PrSwRnX7rEMGMQL-65" value="" style="rounded=0;whiteSpace=wrap;html=1;fillColor=#dae8fc;strokeColor=#6c8ebf;" vertex="1" parent="1">
          <mxGeometry x="1141" y="40" width="40" height="40" as="geometry" />
        </mxCell>
        <mxCell id="B0pa5PrSwRnX7rEMGMQL-69" value="0" style="rounded=0;whiteSpace=wrap;html=1;" vertex="1" parent="1">
          <mxGeometry x="681" y="120" width="40" height="40" as="geometry" />
        </mxCell>
        <mxCell id="B0pa5PrSwRnX7rEMGMQL-70" value="1" style="rounded=0;whiteSpace=wrap;html=1;" vertex="1" parent="1">
          <mxGeometry x="761" y="120" width="40" height="40" as="geometry" />
        </mxCell>
        <mxCell id="B0pa5PrSwRnX7rEMGMQL-71" value="n" style="rounded=0;whiteSpace=wrap;html=1;fillColor=#d5e8d4;strokeColor=#82b366;" vertex="1" parent="1">
          <mxGeometry x="721" y="120" width="40" height="40" as="geometry" />
        </mxCell>
        <mxCell id="B0pa5PrSwRnX7rEMGMQL-72" value="n" style="rounded=0;whiteSpace=wrap;html=1;fillColor=#dae8fc;strokeColor=#6c8ebf;" vertex="1" parent="1">
          <mxGeometry x="801" y="120" width="40" height="40" as="geometry" />
        </mxCell>
        <mxCell id="2lOXREVH-1MPbIz9rNjl-2" value="ivex&amp;nbsp; &amp;nbsp; ilink&amp;nbsp; &amp;nbsp;jvex&amp;nbsp; &amp;nbsp;jlink" style="text;html=1;align=center;verticalAlign=middle;resizable=0;points=[];autosize=1;strokeColor=none;fillColor=none;" vertex="1" parent="1">
          <mxGeometry x="1090" y="320" width="140" height="30" as="geometry" />
        </mxCell>
        <mxCell id="19JXx4Fb2y1odMeE2x4L-1" value="0" style="rounded=0;whiteSpace=wrap;html=1;" vertex="1" parent="1">
          <mxGeometry x="721" y="560" width="40" height="40" as="geometry" />
        </mxCell>
        <mxCell id="19JXx4Fb2y1odMeE2x4L-2" value="3" style="rounded=0;whiteSpace=wrap;html=1;" vertex="1" parent="1">
          <mxGeometry x="801" y="560" width="40" height="40" as="geometry" />
        </mxCell>
        <mxCell id="19JXx4Fb2y1odMeE2x4L-3" value="n" style="rounded=0;whiteSpace=wrap;html=1;fillColor=#d5e8d4;strokeColor=#82b366;" vertex="1" parent="1">
          <mxGeometry x="761" y="560" width="40" height="40" as="geometry" />
        </mxCell>
        <mxCell id="19JXx4Fb2y1odMeE2x4L-65" style="edgeStyle=orthogonalEdgeStyle;rounded=0;orthogonalLoop=1;jettySize=auto;html=1;exitX=1;exitY=0.5;exitDx=0;exitDy=0;entryX=1;entryY=0.75;entryDx=0;entryDy=0;" edge="1" parent="1" source="19JXx4Fb2y1odMeE2x4L-4" target="19JXx4Fb2y1odMeE2x4L-48">
          <mxGeometry relative="1" as="geometry" />
        </mxCell>
        <mxCell id="19JXx4Fb2y1odMeE2x4L-4" value="" style="rounded=0;whiteSpace=wrap;html=1;fillColor=#dae8fc;strokeColor=#6c8ebf;" vertex="1" parent="1">
          <mxGeometry x="841" y="560" width="40" height="40" as="geometry" />
        </mxCell>
        <mxCell id="19JXx4Fb2y1odMeE2x4L-36" value="3" style="rounded=0;whiteSpace=wrap;html=1;" vertex="1" parent="1">
          <mxGeometry x="1280" y="200" width="40" height="40" as="geometry" />
        </mxCell>
        <mxCell id="19JXx4Fb2y1odMeE2x4L-37" value="" style="rounded=0;whiteSpace=wrap;html=1;fillColor=#d5e8d4;strokeColor=#82b366;" vertex="1" parent="1">
          <mxGeometry x="1320" y="200" width="40" height="40" as="geometry" />
        </mxCell>
        <mxCell id="19JXx4Fb2y1odMeE2x4L-38" value="1" style="rounded=0;whiteSpace=wrap;html=1;" vertex="1" parent="1">
          <mxGeometry x="1360" y="200" width="40" height="40" as="geometry" />
        </mxCell>
        <mxCell id="19JXx4Fb2y1odMeE2x4L-39" value="" style="rounded=0;whiteSpace=wrap;html=1;fillColor=#dae8fc;strokeColor=#6c8ebf;" vertex="1" parent="1">
          <mxGeometry x="1400" y="200" width="40" height="40" as="geometry" />
        </mxCell>
        <mxCell id="19JXx4Fb2y1odMeE2x4L-44" value="0" style="rounded=0;whiteSpace=wrap;html=1;" vertex="1" parent="1">
          <mxGeometry x="721" y="470" width="40" height="40" as="geometry" />
        </mxCell>
        <mxCell id="19JXx4Fb2y1odMeE2x4L-45" value="n" style="rounded=0;whiteSpace=wrap;html=1;fillColor=#d5e8d4;strokeColor=#82b366;" vertex="1" parent="1">
          <mxGeometry x="761" y="470" width="40" height="40" as="geometry" />
        </mxCell>
        <mxCell id="19JXx4Fb2y1odMeE2x4L-46" value="2" style="rounded=0;whiteSpace=wrap;html=1;" vertex="1" parent="1">
          <mxGeometry x="801" y="470" width="40" height="40" as="geometry" />
        </mxCell>
        <mxCell id="19JXx4Fb2y1odMeE2x4L-47" style="edgeStyle=orthogonalEdgeStyle;rounded=0;orthogonalLoop=1;jettySize=auto;html=1;exitX=1;exitY=0.5;exitDx=0;exitDy=0;entryX=1;entryY=0.5;entryDx=0;entryDy=0;" edge="1" parent="1" source="19JXx4Fb2y1odMeE2x4L-48" target="19JXx4Fb2y1odMeE2x4L-62">
          <mxGeometry relative="1" as="geometry" />
        </mxCell>
        <mxCell id="19JXx4Fb2y1odMeE2x4L-48" value="" style="rounded=0;whiteSpace=wrap;html=1;fillColor=#dae8fc;strokeColor=#6c8ebf;" vertex="1" parent="1">
          <mxGeometry x="841" y="470" width="40" height="40" as="geometry" />
        </mxCell>
        <mxCell id="19JXx4Fb2y1odMeE2x4L-49" value="v0" style="rounded=0;whiteSpace=wrap;html=1;" vertex="1" parent="1">
          <mxGeometry x="401" y="390" width="40" height="40" as="geometry" />
        </mxCell>
        <mxCell id="19JXx4Fb2y1odMeE2x4L-50" style="rounded=0;orthogonalLoop=1;jettySize=auto;html=1;exitX=1;exitY=0.5;exitDx=0;exitDy=0;" edge="1" parent="1" source="19JXx4Fb2y1odMeE2x4L-51">
          <mxGeometry relative="1" as="geometry">
            <mxPoint x="720" y="580" as="targetPoint" />
          </mxGeometry>
        </mxCell>
        <mxCell id="19JXx4Fb2y1odMeE2x4L-51" value="" style="rounded=0;whiteSpace=wrap;html=1;fillColor=#dae8fc;strokeColor=#6c8ebf;" vertex="1" parent="1">
          <mxGeometry x="441" y="390" width="40" height="40" as="geometry" />
        </mxCell>
        <mxCell id="19JXx4Fb2y1odMeE2x4L-52" value="v2" style="rounded=0;whiteSpace=wrap;html=1;" vertex="1" parent="1">
          <mxGeometry x="401" y="550" width="40" height="40" as="geometry" />
        </mxCell>
        <mxCell id="19JXx4Fb2y1odMeE2x4L-53" style="rounded=0;orthogonalLoop=1;jettySize=auto;html=1;exitX=1;exitY=0.5;exitDx=0;exitDy=0;" edge="1" parent="1" source="19JXx4Fb2y1odMeE2x4L-54">
          <mxGeometry relative="1" as="geometry">
            <mxPoint x="720" y="730" as="targetPoint" />
          </mxGeometry>
        </mxCell>
        <mxCell id="19JXx4Fb2y1odMeE2x4L-54" value="" style="rounded=0;whiteSpace=wrap;html=1;fillColor=#dae8fc;strokeColor=#6c8ebf;" vertex="1" parent="1">
          <mxGeometry x="441" y="550" width="40" height="40" as="geometry" />
        </mxCell>
        <mxCell id="19JXx4Fb2y1odMeE2x4L-55" value="data&amp;nbsp; &amp;nbsp; firstedge" style="text;html=1;strokeColor=none;fillColor=none;align=center;verticalAlign=middle;whiteSpace=wrap;rounded=0;" vertex="1" parent="1">
          <mxGeometry x="361" y="360" width="120" height="30" as="geometry" />
        </mxCell>
        <mxCell id="19JXx4Fb2y1odMeE2x4L-56" value="v1" style="rounded=0;whiteSpace=wrap;html=1;" vertex="1" parent="1">
          <mxGeometry x="401" y="470" width="40" height="40" as="geometry" />
        </mxCell>
        <mxCell id="19JXx4Fb2y1odMeE2x4L-57" style="rounded=0;orthogonalLoop=1;jettySize=auto;html=1;exitX=1;exitY=0.5;exitDx=0;exitDy=0;entryX=0;entryY=0.5;entryDx=0;entryDy=0;" edge="1" parent="1" source="19JXx4Fb2y1odMeE2x4L-58" target="19JXx4Fb2y1odMeE2x4L-67">
          <mxGeometry relative="1" as="geometry" />
        </mxCell>
        <mxCell id="19JXx4Fb2y1odMeE2x4L-58" value="" style="rounded=0;whiteSpace=wrap;html=1;fillColor=#dae8fc;strokeColor=#6c8ebf;" vertex="1" parent="1">
          <mxGeometry x="441" y="470" width="39" height="40" as="geometry" />
        </mxCell>
        <mxCell id="19JXx4Fb2y1odMeE2x4L-59" value="0" style="rounded=0;whiteSpace=wrap;html=1;" vertex="1" parent="1">
          <mxGeometry x="721" y="390" width="40" height="40" as="geometry" />
        </mxCell>
        <mxCell id="19JXx4Fb2y1odMeE2x4L-60" value="1" style="rounded=0;whiteSpace=wrap;html=1;" vertex="1" parent="1">
          <mxGeometry x="801" y="390" width="40" height="40" as="geometry" />
        </mxCell>
        <mxCell id="19JXx4Fb2y1odMeE2x4L-61" value="n" style="rounded=0;whiteSpace=wrap;html=1;fillColor=#d5e8d4;strokeColor=#82b366;" vertex="1" parent="1">
          <mxGeometry x="761" y="390" width="40" height="40" as="geometry" />
        </mxCell>
        <mxCell id="19JXx4Fb2y1odMeE2x4L-62" value="n" style="rounded=0;whiteSpace=wrap;html=1;fillColor=#dae8fc;strokeColor=#6c8ebf;" vertex="1" parent="1">
          <mxGeometry x="841" y="390" width="40" height="40" as="geometry" />
        </mxCell>
        <mxCell id="19JXx4Fb2y1odMeE2x4L-63" value="v3" style="rounded=0;whiteSpace=wrap;html=1;" vertex="1" parent="1">
          <mxGeometry x="401" y="630" width="40" height="40" as="geometry" />
        </mxCell>
        <mxCell id="19JXx4Fb2y1odMeE2x4L-78" style="rounded=0;orthogonalLoop=1;jettySize=auto;html=1;exitX=1;exitY=0.75;exitDx=0;exitDy=0;entryX=0;entryY=0.5;entryDx=0;entryDy=0;" edge="1" parent="1" source="19JXx4Fb2y1odMeE2x4L-64" target="19JXx4Fb2y1odMeE2x4L-73">
          <mxGeometry relative="1" as="geometry" />
        </mxCell>
        <mxCell id="19JXx4Fb2y1odMeE2x4L-64" value="" style="rounded=0;whiteSpace=wrap;html=1;fillColor=#dae8fc;strokeColor=#6c8ebf;" vertex="1" parent="1">
          <mxGeometry x="441" y="630" width="40" height="40" as="geometry" />
        </mxCell>
        <mxCell id="19JXx4Fb2y1odMeE2x4L-67" value="1" style="rounded=0;whiteSpace=wrap;html=1;" vertex="1" parent="1">
          <mxGeometry x="721" y="630" width="40" height="40" as="geometry" />
        </mxCell>
        <mxCell id="19JXx4Fb2y1odMeE2x4L-68" value="2" style="rounded=0;whiteSpace=wrap;html=1;" vertex="1" parent="1">
          <mxGeometry x="801" y="630" width="40" height="40" as="geometry" />
        </mxCell>
        <mxCell id="19JXx4Fb2y1odMeE2x4L-72" style="edgeStyle=orthogonalEdgeStyle;rounded=0;orthogonalLoop=1;jettySize=auto;html=1;exitX=0.5;exitY=0;exitDx=0;exitDy=0;entryX=0.5;entryY=1;entryDx=0;entryDy=0;" edge="1" parent="1" source="19JXx4Fb2y1odMeE2x4L-69" target="19JXx4Fb2y1odMeE2x4L-45">
          <mxGeometry relative="1" as="geometry" />
        </mxCell>
        <mxCell id="19JXx4Fb2y1odMeE2x4L-69" value="" style="rounded=0;whiteSpace=wrap;html=1;fillColor=#d5e8d4;strokeColor=#82b366;" vertex="1" parent="1">
          <mxGeometry x="761" y="630" width="40" height="40" as="geometry" />
        </mxCell>
        <mxCell id="19JXx4Fb2y1odMeE2x4L-71" style="edgeStyle=orthogonalEdgeStyle;rounded=0;orthogonalLoop=1;jettySize=auto;html=1;exitX=1;exitY=0.5;exitDx=0;exitDy=0;entryX=1;entryY=0.5;entryDx=0;entryDy=0;" edge="1" parent="1" source="19JXx4Fb2y1odMeE2x4L-70" target="19JXx4Fb2y1odMeE2x4L-62">
          <mxGeometry relative="1" as="geometry">
            <Array as="points">
              <mxPoint x="920" y="650" />
              <mxPoint x="920" y="410" />
            </Array>
          </mxGeometry>
        </mxCell>
        <mxCell id="19JXx4Fb2y1odMeE2x4L-70" value="" style="rounded=0;whiteSpace=wrap;html=1;fillColor=#dae8fc;strokeColor=#6c8ebf;" vertex="1" parent="1">
          <mxGeometry x="841" y="630" width="40" height="40" as="geometry" />
        </mxCell>
        <mxCell id="19JXx4Fb2y1odMeE2x4L-73" value="2" style="rounded=0;whiteSpace=wrap;html=1;" vertex="1" parent="1">
          <mxGeometry x="721" y="710" width="40" height="40" as="geometry" />
        </mxCell>
        <mxCell id="19JXx4Fb2y1odMeE2x4L-74" value="3" style="rounded=0;whiteSpace=wrap;html=1;" vertex="1" parent="1">
          <mxGeometry x="801" y="710" width="40" height="40" as="geometry" />
        </mxCell>
        <mxCell id="19JXx4Fb2y1odMeE2x4L-75" value="n" style="rounded=0;whiteSpace=wrap;html=1;fillColor=#d5e8d4;strokeColor=#82b366;" vertex="1" parent="1">
          <mxGeometry x="761" y="710" width="40" height="40" as="geometry" />
        </mxCell>
        <mxCell id="19JXx4Fb2y1odMeE2x4L-77" style="edgeStyle=orthogonalEdgeStyle;rounded=0;orthogonalLoop=1;jettySize=auto;html=1;exitX=1;exitY=0.5;exitDx=0;exitDy=0;entryX=1;entryY=0.75;entryDx=0;entryDy=0;" edge="1" parent="1" source="19JXx4Fb2y1odMeE2x4L-76" target="19JXx4Fb2y1odMeE2x4L-70">
          <mxGeometry relative="1" as="geometry">
            <Array as="points">
              <mxPoint x="940" y="730" />
              <mxPoint x="940" y="660" />
            </Array>
          </mxGeometry>
        </mxCell>
        <mxCell id="19JXx4Fb2y1odMeE2x4L-76" value="" style="rounded=0;whiteSpace=wrap;html=1;fillColor=#dae8fc;strokeColor=#6c8ebf;" vertex="1" parent="1">
          <mxGeometry x="841" y="710" width="40" height="40" as="geometry" />
        </mxCell>
      </root>
    </mxGraphModel>
  </diagram>
</mxfile>
